<svg width="34" height="34" viewBox="0 0 34 34" fill="none" xmlns="http://www.w3.org/2000/svg">
<g clip-path="url(#clip0_285_2243)">
<path d="M8.49969 33.9999V19.1635L8.03219 18.7385C7.72052 18.4295 7.47969 18.0817 7.30969 17.6954C7.13969 17.309 7.05469 16.9226 7.05469 16.5363C7.05469 16.1242 7.13969 15.7316 7.30969 15.3586C7.47969 14.9846 7.72052 14.656 8.03219 14.3726L13.5997 9.27264H20.3997L27.1997 3.09082L30.6847 6.259C31.8747 7.31506 32.753 8.50609 33.3197 9.83209C33.8864 11.1591 34.1697 12.5181 34.1697 13.909C34.1697 15.2999 33.8864 16.6522 33.3197 17.9658C32.753 19.2795 31.8747 20.4772 30.6847 21.559L27.1997 24.7272V33.9999H8.49969ZM11.8997 30.909H23.7997V23.4522L28.2622 19.3954C29.0839 18.6484 29.7072 17.7917 30.1322 16.8253C30.5572 15.8599 30.7697 14.8878 30.7697 13.909C30.7697 12.9302 30.5572 11.9643 30.1322 11.0113C29.7072 10.0582 29.0839 9.20824 28.2622 8.46127L27.1997 7.45673L21.8022 12.3635H15.0022L14.0247 13.2522L16.8722 15.8408C17.6939 16.5878 18.3172 17.4378 18.7422 18.3908C19.1672 19.3438 19.3797 20.3098 19.3797 21.2885C19.3797 22.2673 19.1672 23.2399 18.7422 24.2064C18.3172 25.1718 17.6939 26.0279 16.8722 26.7749L11.8997 22.2545V30.909Z" fill="black"/>
</g>
<defs>
<clipPath id="clip0_285_2243">
<rect width="34" height="34" fill="white"/>
</clipPath>
</defs>
</svg>
