<svg width="34" height="34" viewBox="0 0 34 34" fill="none" xmlns="http://www.w3.org/2000/svg">
<path fill-rule="evenodd" clip-rule="evenodd" d="M5.3125 9.12207L11.7084 15.518C11.8107 15.4238 11.9221 15.3223 12.0416 15.2145C12.7186 14.6041 13.6639 13.7877 14.7331 12.9687C15.7984 12.1526 17.0085 11.3171 18.2134 10.6811C19.3926 10.0587 20.6863 9.56217 21.8875 9.56217C26.1643 9.56217 29.75 12.8285 29.75 16.9997C29.75 21.1709 26.1643 24.4372 21.8875 24.4372C20.6863 24.4372 19.3926 23.9406 18.2134 23.3183C17.0085 22.6822 15.7984 21.8468 14.7331 21.0306C13.6639 20.2117 12.7186 19.3952 12.0416 18.7849C11.9221 18.6771 11.8107 18.5756 11.7084 18.4813L5.3125 24.8773V9.12207ZM13.2367 16.9997C13.3085 16.9339 13.3846 16.8648 13.4646 16.7927C14.1134 16.2077 15.0138 15.4304 16.0253 14.6556C17.0405 13.878 18.1457 13.1197 19.2053 12.5604C20.2908 11.9875 21.211 11.6872 21.8875 11.6872C25.1219 11.6872 27.625 14.1292 27.625 16.9997C27.625 19.8701 25.1219 22.3122 21.8875 22.3122C21.211 22.3122 20.2908 22.0118 19.2053 21.4389C18.1457 20.8796 17.0405 20.1214 16.0253 19.3437C15.0138 18.5689 14.1134 17.7916 13.4646 17.2066C13.3846 17.1345 13.3085 17.0654 13.2367 16.9997ZM10.1849 16.9997L7.4375 14.2523V19.7471L10.1849 16.9997Z" fill="#080341"/>
<path d="M25.5 15.4062C25.5 16.2864 24.7864 17 23.9062 17C23.0261 17 22.3125 16.2864 22.3125 15.4062C22.3125 14.5261 23.0261 13.8125 23.9062 13.8125C24.7864 13.8125 25.5 14.5261 25.5 15.4062Z" fill="#080341"/>
</svg>
