<svg width="34" height="34" viewBox="0 0 34 34" fill="none" xmlns="http://www.w3.org/2000/svg">
<path d="M16.9991 23.1738L16.9817 23.0072C16.692 20.9991 14.8143 19.6037 12.7877 19.8904L12.7598 20.1495C12.7412 20.4095 12.7505 20.6707 12.7878 20.9291C13.0775 22.9372 14.9551 24.3327 16.9817 24.0459L16.9991 23.8708M16.9991 23.1738L16.9853 23.359C16.9785 23.5094 16.9811 23.6616 16.9934 23.815L16.9991 23.8708M16.9991 23.1738L17.0096 23.2663C17.022 23.4396 17.022 23.6136 17.0096 23.7868L16.9991 23.8708M16.9991 23.1738L17.0023 23.1349C17.1776 21.5027 18.4495 20.1335 20.1643 19.891C20.425 19.854 20.6888 19.8448 20.9512 19.8634L21.2127 19.891C21.5024 21.8991 20.0944 23.7593 18.0678 24.0461C17.807 24.0829 17.5434 24.0921 17.281 24.0737L17.0195 24.0459L16.9991 23.8708M8.5005 12.75H17.0005H25.5005V24.0833L27.1887 26.6156C27.4056 26.941 27.3177 27.3809 26.9922 27.5979C26.8103 27.7191 26.5827 27.7497 26.3753 27.6805L24.0838 26.9167C19.5368 28.7355 14.4642 28.7355 9.91717 26.9167L7.6257 27.6805C7.25456 27.8042 6.85341 27.6036 6.72971 27.2324C6.66059 27.0252 6.69108 26.7975 6.81233 26.6156L8.5005 24.0833V12.75ZM16.9815 15.5833C18.6193 16.8005 18.9514 19.1026 17.7233 20.7253C17.5652 20.9341 17.3853 21.1255 17.1868 21.2962L16.9819 21.4598C15.3441 20.2426 15.0121 17.9405 16.2402 16.3179C16.451 16.0395 16.7006 15.7921 16.9815 15.5833ZM25.5005 9.91667C26.2829 9.91667 26.9172 10.5509 26.9172 11.3333V12.75H7.08383V11.3333C7.08383 10.5509 7.71809 9.91667 8.5005 9.91667H25.5005ZM17.0005 4.25C20.2547 5.99836 22.3877 7.88745 23.3993 9.91723H10.6017C11.6133 7.88745 13.7462 5.99836 17.0005 4.25Z" stroke="black" stroke-width="2" stroke-linejoin="round"/>
</svg>
