<svg width="34" height="34" viewBox="0 0 34 34" fill="none" xmlns="http://www.w3.org/2000/svg">
<path fill-rule="evenodd" clip-rule="evenodd" d="M23.7642 8.06658C23.7102 7.94061 23.654 7.87595 23.4729 7.69499C23.058 7.28006 22.3853 7.28006 21.9704 7.69499C21.5555 8.10992 21.5555 8.78266 21.9704 9.19759L22.7217 9.94889L20.3915 12.279C20.6849 12.4729 20.962 12.6971 21.219 12.9541C21.4761 13.2111 21.7002 13.4882 21.8942 13.7816L24.2243 11.4515L24.9756 12.2028C25.3905 12.6177 26.0633 12.6177 26.4781 12.2028C26.893 11.7879 26.893 11.1151 26.4781 10.7002C26.2972 10.5192 26.2326 10.4629 26.1065 10.409C25.9593 10.3458 25.6484 10.2601 24.9756 10.2601H23.9131V9.19759C23.9131 8.52486 23.8274 8.2139 23.7642 8.06658ZM22.7669 15.9141C23.0642 17.2895 22.9837 18.7895 22.7008 20.1761C22.1818 22.7203 20.9102 25.2838 19.3749 26.819C16.1973 29.9966 10.9668 29.7487 7.69563 26.4776C4.42448 23.2064 4.17656 17.9757 7.35413 14.7982C8.88933 13.263 11.4528 11.9913 13.997 11.4723C15.3838 11.1894 16.8836 11.1089 18.2592 11.4062L19.8447 9.82064C19.2787 8.63582 19.4864 7.17375 20.4677 6.19239C21.7126 4.94759 23.7308 4.94759 24.9756 6.19239C24.9805 6.1974 24.9856 6.20249 24.9909 6.20766C25.1867 6.40324 25.4955 6.71175 25.7173 7.2295C25.8382 7.51143 25.9235 7.82944 25.9755 8.19765C26.3437 8.24973 26.6617 8.33495 26.9436 8.45578C27.4614 8.67767 27.77 8.98652 27.9655 9.18232C27.9707 9.18749 27.9758 9.19257 27.9808 9.19759C29.2256 10.4424 29.2256 12.4606 27.9808 13.7054C26.9994 14.6868 25.5373 14.8945 24.3525 14.3284L22.7669 15.9141ZM14.4218 13.5544C12.1943 14.0088 10.0375 15.12 8.85673 16.3008C6.60246 18.555 6.66033 22.437 9.19823 24.9749C11.7361 27.5129 15.6181 27.5707 17.8724 25.3165C19.0531 24.1357 20.1643 21.9788 20.6188 19.7514C21.0813 17.4843 20.7947 15.535 19.7165 14.4567C18.6381 13.3784 16.6889 13.0919 14.4218 13.5544Z" fill="#295020"/>
</svg>
