<svg width="34" height="34" viewBox="0 0 34 34" fill="none" xmlns="http://www.w3.org/2000/svg">
<g clip-path="url(#clip0_283_2923)">
<path d="M33.456 18.5743C32.7926 17.1087 31.6063 16.0125 30.1158 15.4877C28.5436 14.9341 26.5751 15.1088 24.8494 15.9551C24.5181 16.1175 24.1685 16.2192 23.8199 16.277C23.7178 15.4812 23.8763 14.7417 24.2948 14.0704C24.4288 13.8554 24.5756 13.6698 24.7158 13.515C25.0567 13.1386 25.1094 12.5832 24.8377 12.154C24.4398 11.5256 23.5537 11.4512 23.0542 12.0022C22.8544 12.2227 22.6478 12.4817 22.4536 12.7793C21.9523 13.548 21.4677 14.6846 21.5507 16.1381C21.3343 16.0778 21.163 16.0132 21.0546 15.9588C20.1162 15.4877 19.0979 15.2229 18.1059 15.1728C17.5678 14.0661 17.2848 12.8493 17.2848 11.6173C17.2848 10.2961 16.866 9.04091 16.0735 7.98744C15.3081 6.9697 14.2185 6.2055 13.0055 5.83555C12.9633 5.82266 12.9202 5.81224 12.8767 5.80447C12.8593 5.80135 12.842 5.79876 12.8247 5.79577C13.1971 4.87571 13.9365 3.5616 15.3727 2.36901C15.8365 1.98392 15.9489 1.30093 15.5917 0.815367C15.2064 0.291555 14.4663 0.204696 13.9713 0.612696C13.0432 1.37756 12.3424 2.1925 11.8141 2.96852C11.2773 0.979457 8.72534 -0.160937 5.8526 0.355371C3.81984 0.720407 1.60174 2.7458 0.460349 3.92072C0.0954468 4.29638 -0.0670493 4.8283 0.025521 5.34361C0.118091 5.85906 0.455701 6.30119 0.92838 6.52631C2.20916 7.13631 4.46923 8.06341 6.3725 8.06334C6.40889 8.06334 6.44475 8.06195 6.48087 8.06122C5.66288 9.09178 5.19591 10.3564 5.19591 11.6173C5.19591 13.5168 4.52441 15.368 3.30513 16.8303C1.76231 18.6804 0.912642 21.028 0.912642 23.4406C0.912642 29.1354 5.54567 33.7685 11.2404 33.7685C13.3332 33.7685 15.3704 33.1311 17.0818 31.9571C19.0577 33.9194 20.8473 33.9713 22.1132 33.5645C22.416 33.4671 22.6948 33.3087 22.9482 33.0904C23.2019 33.3087 23.4805 33.4671 23.7834 33.5645C24.1641 33.6869 24.5918 33.7677 25.0581 33.7677C26.5888 33.7677 28.5314 32.895 30.5607 29.751C31.9571 27.5876 33.0057 24.988 33.6394 23.1881C34.1769 21.6617 34.1117 20.0231 33.456 18.5743ZM2.70349 4.86263C4.07411 3.56777 5.36677 2.72514 6.24971 2.5665C8.0365 2.24563 9.52361 2.8545 9.65987 3.6132C9.71917 3.94337 9.5179 4.35123 9.10764 4.73207C8.56497 5.2359 7.73369 5.6182 6.82711 5.78109C5.94404 5.93974 4.43881 5.59961 2.70349 4.86263ZM11.2401 31.5218C6.78435 31.5219 3.15917 27.8966 3.15917 23.4406C3.15917 21.5529 3.82376 19.7162 5.03049 18.2691C6.58586 16.4039 7.44243 14.0416 7.44243 11.6174C7.44243 10.6165 7.94838 9.596 8.79566 8.88751C9.47785 8.31708 10.3243 7.99534 11.2514 7.93976C11.2874 7.94315 11.3232 7.94547 11.3587 7.94547C11.4196 7.94547 11.4794 7.93976 11.5381 7.9302C11.5393 7.9302 11.5405 7.93013 11.5418 7.93013C11.826 7.93013 12.1171 7.95464 12.4122 8.00411C13.9857 8.51285 15.0381 9.95672 15.0381 11.6175C15.0381 12.945 15.2945 14.2588 15.7874 15.4854C15.7851 15.4862 15.7828 15.487 15.7805 15.4878C15.6874 15.5206 15.5954 15.5556 15.5047 15.5928C14.1438 16.1511 13.0623 17.2003 12.4404 18.5745C11.7846 20.0232 11.7194 21.6618 12.257 23.1882C12.8907 24.988 13.9393 27.5876 15.3357 29.751C15.4395 29.9118 15.543 30.066 15.6463 30.2151C14.3422 31.0632 12.8111 31.5218 11.2401 31.5218ZM31.5203 22.442C29.8 27.3274 27.0443 32.253 24.4709 31.4257C24.4167 31.4083 24.2119 31.2354 23.9878 30.6879C23.8149 30.2658 23.4042 29.9902 22.9481 29.9902C22.492 29.9902 22.0814 30.2659 21.9086 30.688C21.6845 31.2354 21.4795 31.4082 21.4255 31.4257C20.3417 31.7739 19.2255 31.1017 18.168 29.8421C18.1433 29.803 18.117 29.7647 18.087 29.728C16.4544 27.7341 15.1895 24.6852 14.5116 22.8207C14.5034 22.7979 14.4952 22.7752 14.4869 22.7525C14.4731 22.714 14.4593 22.6759 14.4459 22.6386C14.4225 22.573 14.3991 22.5074 14.376 22.442C14.0317 21.4642 14.0712 20.4198 14.4871 19.5009C14.6147 19.219 14.7732 18.9595 14.9584 18.7262C15.0979 18.5505 15.2531 18.3903 15.4211 18.246C15.4432 18.2272 15.4654 18.2086 15.4878 18.1903C15.704 18.0139 15.9406 17.8632 16.1954 17.743C16.3028 17.6923 16.4133 17.6468 16.5266 17.6069C16.596 17.5825 16.6675 17.5607 16.7404 17.5408C16.762 17.5349 16.7842 17.5301 16.806 17.5246C16.8582 17.5114 16.9108 17.4989 16.9646 17.4881C16.9905 17.4828 17.0168 17.4782 17.0431 17.4736C17.0949 17.4643 17.1473 17.4558 17.2004 17.4486C17.2269 17.445 17.2534 17.4416 17.2802 17.4385C17.3366 17.4321 17.3938 17.427 17.4515 17.4228C18.2864 17.3629 19.2163 17.5499 20.0465 17.9668C20.6532 18.2714 21.6929 18.5566 22.8588 18.5816C22.8883 18.584 22.918 18.5852 22.9478 18.5852C22.9614 18.5852 22.9751 18.5841 22.9887 18.5836C23.917 18.5878 24.9171 18.424 25.8385 17.9723C27.0164 17.3948 28.3694 17.2548 29.3694 17.6069C30.2763 17.9263 31.0007 18.5989 31.409 19.5009C31.8252 20.4196 31.8646 21.4641 31.5203 22.442Z" fill="black"/>
</g>
<defs>
<clipPath id="clip0_283_2923">
<rect width="34" height="34" fill="white"/>
</clipPath>
</defs>
</svg>
