<svg width="34" height="34" viewBox="0 0 34 34" fill="none" xmlns="http://www.w3.org/2000/svg">
<path d="M33.6038 15.5638C33.3491 14.8786 32.9774 14.2326 32.5172 13.6506C31.123 11.8842 28.9557 10.5779 26.3182 9.67289C26.1276 9.60934 25.9316 9.54532 25.7362 9.48702C24.7184 9.1688 23.6371 8.91413 22.5067 8.72348C20.8334 8.43966 19.0526 8.29297 17.1983 8.29297H16.8753C15.7792 8.30253 14.7079 8.36655 13.6706 8.47406C11.8407 8.66949 10.1134 9.01208 8.53802 9.50136C7.62778 9.77562 6.76683 10.1034 5.96929 10.4704C5.71509 10.5879 5.4652 10.7102 5.22056 10.8373C3.68445 11.6443 2.39769 12.6377 1.47312 13.8265C0.548082 15.0157 -0.00475049 16.4296 3.07622e-05 17.9514V18.0001C0.00527686 18.7441 0.141941 19.4584 0.40139 20.1039C0.856273 21.2492 1.68336 22.1785 2.71591 22.8976C4.27168 23.9789 6.30185 24.6545 8.65071 25.0898C11.0039 25.5251 13.6854 25.7061 16.5326 25.7061C16.709 25.7061 16.89 25.7061 17.0658 25.7014C21.5185 25.6622 25.5698 25.2216 28.6474 24.0816C30.1883 23.5044 31.4994 22.7461 32.4684 21.704C32.9477 21.1803 33.3395 20.5836 33.6037 19.9228C33.868 19.2624 34.0047 18.5434 33.9998 17.7851V17.7359C33.9952 16.9824 33.8581 16.2485 33.6038 15.5638ZM31.7981 17.7851C31.7981 18.2839 31.715 18.7144 31.5583 19.1058C31.2845 19.7909 30.7756 20.4025 29.9781 20.9554C28.7941 21.7872 26.9737 22.4427 24.7428 22.8584C22.5119 23.2794 19.8744 23.4801 17.0515 23.4997C16.8752 23.5044 16.7041 23.5044 16.5326 23.5044C12.3346 23.5092 8.58191 23.084 6.01318 22.1198C4.72643 21.6453 3.75271 21.0433 3.13633 20.3681C2.82821 20.0308 2.60309 19.6734 2.44637 19.2869C2.29012 18.9003 2.20698 18.4746 2.20173 17.9853V17.9514C2.20173 16.9581 2.53476 16.0531 3.20991 15.1772C4.01216 14.1351 5.33332 13.1709 7.04102 12.3978C7.66696 13.6162 8.17577 14.7759 8.57719 15.7349C9.3159 17.4817 10.8621 16.8748 10.4708 15.236C10.2505 14.2866 10.0059 13.0586 9.42865 11.5273C10.9944 11.0671 12.7508 10.7489 14.6344 10.5975C15.3 12.2267 15.7892 13.7825 16.161 15.0353C16.7434 16.9824 18.5094 16.5275 18.2944 14.7367C18.1668 13.6654 18.0545 12.2808 17.5848 10.4995C19.5907 10.5191 21.4942 10.7346 23.2115 11.1016C23.5737 12.5154 23.8279 13.8366 24.0238 14.9374C24.3854 16.9581 26.1715 16.6891 26.1519 14.8591C26.1472 14.0616 26.1667 13.1026 26.0688 11.9234C26.6804 12.1532 27.2528 12.4031 27.7765 12.6721C29.0923 13.3473 30.1101 14.1495 30.7805 15.011C31.4556 15.872 31.7886 16.7622 31.7982 17.7507L31.7981 17.7851Z" fill="black"/>
</svg>
