<svg width="34" height="34" viewBox="0 0 34 34" fill="none" xmlns="http://www.w3.org/2000/svg">
<path d="M25.5 21.2497V26.9164C25.5 29.2539 23.5875 31.1664 21.25 31.1664H12.75C10.4125 31.1664 8.5 29.2539 8.5 26.9164V19.8047L14.0108 19.833C15.045 19.833 16.065 20.0739 17 20.5414C17.935 21.0089 18.955 21.2497 20.0033 21.2497H25.5Z" stroke="#292D32" stroke-width="2.75" stroke-linecap="round" stroke-linejoin="round"/>
<path d="M25.5 15.3422V21.2497H20.0033C18.955 21.2497 17.935 21.0088 17 20.5413C16.065 20.0738 15.045 19.833 14.0108 19.833L8.5 19.8047V15.3422C8.5 14.6905 8.86838 13.798 9.33588 13.3305L12.3392 10.3272C12.5942 10.0722 12.75 9.70384 12.75 9.33551V7.08301H21.25V9.33551C21.25 9.70384 21.4058 10.0722 21.6608 10.3272L24.6642 13.3305C25.1317 13.798 25.5 14.6905 25.5 15.3422Z" stroke="#292D32" stroke-width="2.75" stroke-linecap="round" stroke-linejoin="round"/>
<path d="M25.5 22.6667V21.25" stroke="#292D32" stroke-width="2.75" stroke-linecap="round" stroke-linejoin="round"/>
<path d="M8.5 21.2214V19.8047" stroke="#292D32" stroke-width="2.75" stroke-linecap="round" stroke-linejoin="round"/>
<path d="M20.5423 7.08301H13.459C12.2832 7.08301 11.334 6.11967 11.334 4.95801C11.334 3.79634 12.2832 2.83301 13.459 2.83301H20.5423C21.7182 2.83301 22.6673 3.79634 22.6673 4.95801C22.6673 6.11967 21.7182 7.08301 20.5423 7.08301Z" stroke="#292D32" stroke-width="2.75" stroke-linecap="round" stroke-linejoin="round"/>
</svg>
