<svg width="34" height="27" viewBox="0 0 34 27" fill="none" xmlns="http://www.w3.org/2000/svg">
<g clip-path="url(#clip0_285_2239)">
<path d="M13.3592 24.3H7.20922C6.77359 24.3 6.40818 24.157 6.11297 23.8709C5.8188 23.5859 5.67171 23.2324 5.67171 22.8103V12.3827H3.05795C2.6992 12.3827 2.45576 12.2213 2.32764 11.8986C2.19951 11.5758 2.27639 11.3027 2.55826 11.0793L15.3964 -0.130384C15.6783 -0.403488 16.0242 -0.540039 16.4342 -0.540039C16.8442 -0.540039 17.1902 -0.403488 17.4721 -0.130384L22.5843 4.33858V1.95513C22.5843 1.53306 22.7319 1.17902 23.0271 0.89301C23.3212 0.607989 23.6861 0.465478 24.1218 0.465478H25.6593C26.0949 0.465478 26.4598 0.607989 26.754 0.89301C27.0492 1.17902 27.1968 1.53306 27.1968 1.95513V8.36065L30.3102 11.0793C30.5921 11.3027 30.669 11.5758 30.5409 11.8986C30.4127 12.2213 30.1693 12.3827 29.8105 12.3827H27.1968V22.8103C27.1968 23.2324 27.0492 23.5859 26.754 23.8709C26.4598 24.157 26.0949 24.3 25.6593 24.3H19.5093V16.8517C19.5093 16.4296 19.3622 16.0756 19.068 15.7896C18.7728 15.5045 18.4074 15.362 17.9718 15.362H14.8967C14.4611 15.362 14.0962 15.5045 13.802 15.7896C13.5068 16.0756 13.3592 16.4296 13.3592 16.8517V24.3ZM13.3592 9.44065H19.5093C19.5093 8.64617 19.2018 7.9942 18.5868 7.48473C17.9718 6.97626 17.2542 6.72203 16.4342 6.72203C15.6142 6.72203 14.8967 6.97626 14.2817 7.48473C13.6667 7.9942 13.3592 8.64617 13.3592 9.44065Z" fill="black"/>
</g>
<defs>
<clipPath id="clip0_285_2239">
<rect width="34" height="27" fill="white"/>
</clipPath>
</defs>
</svg>
