<svg width="34" height="34" viewBox="0 0 34 34" fill="none" xmlns="http://www.w3.org/2000/svg">
<path d="M16.9993 2.83301C18.1799 2.83301 19.1834 3.2462 20.0098 4.07259C20.8362 4.89898 21.2493 5.90245 21.2493 7.08301C21.2493 8.26356 20.8362 9.26704 20.0098 10.0934C19.1834 10.9198 18.1799 11.333 16.9993 11.333C15.8188 11.333 14.8153 10.9198 13.9889 10.0934C13.1625 9.26704 12.7493 8.26356 12.7493 7.08301C12.7493 5.90245 13.1625 4.89898 13.9889 4.07259C14.8153 3.2462 15.8188 2.83301 16.9993 2.83301ZM16.9993 12.7497C18.1091 12.7497 19.207 12.8795 20.2931 13.1393C21.3792 13.399 22.3591 13.765 23.2327 14.2372C24.1299 14.6858 24.85 15.217 25.3931 15.8309C25.9362 16.4448 26.2077 17.1177 26.2077 17.8497V26.0663C26.2077 26.4677 26.1132 26.8632 25.9243 27.2528C25.7355 27.6424 25.4757 28.0025 25.1452 28.333C24.8146 28.6636 24.4309 28.9705 23.9941 29.2538C23.5573 29.5372 23.0674 29.7969 22.5243 30.033V26.8455C22.5243 25.9483 21.9046 25.2163 20.665 24.6497C19.4254 24.083 18.2035 23.7997 16.9993 23.7997C15.8188 23.7997 14.6796 24.0417 13.5816 24.5257C12.4837 25.0097 11.8049 25.6413 11.5452 26.4205C12.4424 26.7747 13.3632 27.0226 14.3077 27.1643C15.2521 27.3059 16.2202 27.3886 17.2118 27.4122H18.416V31.0955C18.2507 31.1427 18.0796 31.1663 17.9025 31.1663H17.3535C16.5035 31.1663 15.5296 31.0719 14.4316 30.883C13.3337 30.6941 12.2889 30.399 11.2973 29.9976C10.3056 29.5962 9.47331 29.0709 8.80039 28.4215C8.12747 27.7722 7.79102 26.9872 7.79102 26.0663V17.8497C7.79102 17.1177 8.06254 16.4448 8.6056 15.8309C9.14865 15.217 9.85699 14.6858 10.7306 14.2372C11.6278 13.765 12.6195 13.399 13.7056 13.1393C14.7917 12.8795 15.8896 12.7497 16.9993 12.7497ZM16.9993 21.2497C17.7785 21.2497 18.4455 20.9722 19.0004 20.4174C19.5553 19.8625 19.8327 19.1955 19.8327 18.4163C19.8327 17.6372 19.5553 16.9702 19.0004 16.4153C18.4455 15.8604 17.7785 15.583 16.9993 15.583C16.2202 15.583 15.5532 15.8604 14.9983 16.4153C14.4434 16.9702 14.166 17.6372 14.166 18.4163C14.166 19.1955 14.4434 19.8625 14.9983 20.4174C15.5532 20.9722 16.2202 21.2497 16.9993 21.2497Z" fill="black"/>
</svg>
